<?xml version="1.0" encoding="UTF-8" standalone="no"?>
<!-- Created with Inkscape (http://www.inkscape.org/) -->

<svg
   xmlns:dc="http://purl.org/dc/elements/1.1/"
   xmlns:cc="http://creativecommons.org/ns#"
   xmlns:rdf="http://www.w3.org/1999/02/22-rdf-syntax-ns#"
   xmlns:svg="http://www.w3.org/2000/svg"
   xmlns="http://www.w3.org/2000/svg"
   xmlns:sodipodi="http://sodipodi.sourceforge.net/DTD/sodipodi-0.dtd"
   xmlns:inkscape="http://www.inkscape.org/namespaces/inkscape"
   sodipodi:docname="Gift Box Icons_Preview.jpg"
   height="86"
   width="92"
   inkscape:version="0.48.5 r10040"
   version="1.1"
   id="svg2985">
  <metadata
     id="metadata2991">
    <rdf:RDF>
      <cc:Work
         rdf:about="">
        <dc:format>image/svg+xml</dc:format>
        <dc:type
           rdf:resource="http://purl.org/dc/dcmitype/StillImage" />
        <dc:title></dc:title>
      </cc:Work>
    </rdf:RDF>
  </metadata>
  <defs
     id="defs2989" />
  <sodipodi:namedview
     pagecolor="#ffffff"
     bordercolor="#666666"
     borderopacity="1"
     objecttolerance="10"
     gridtolerance="10"
     guidetolerance="10"
     inkscape:pageopacity="0"
     inkscape:pageshadow="2"
     inkscape:window-width="1366"
     inkscape:window-height="715"
     id="namedview2987"
     showgrid="false"
     inkscape:zoom="0.97021628"
     inkscape:cx="-119.90433"
     inkscape:cy="14.828255"
     inkscape:window-x="-8"
     inkscape:window-y="-8"
     inkscape:window-maximized="1"
     inkscape:current-layer="svg2985"
     showborder="true"
     inkscape:showpageshadow="true" />
  <rect
     style="fill:#000000;fill-opacity:1;stroke:none"
     id="rect2995"
     width="16.398306"
     height="18.752144"
     x="27.657211"
     y="36.325077" />
  <rect
     style="fill:#000000;fill-opacity:1;stroke:none"
     id="rect2997"
     width="12.754237"
     height="18.803719"
     x="48.428398"
     y="36.273499" />
  <rect
     style="fill:#000000;fill-opacity:1;stroke:none"
     id="rect2999"
     width="16.169493"
     height="13.847458"
     x="27.886032"
     y="59.450104" />
  <rect
     style="fill:#000000;fill-opacity:1;stroke:none"
     id="rect3001"
     width="13.118644"
     height="13.847458"
     x="48.428398"
     y="59.450104" />
  <path
     style="fill:#008000;fill-opacity:1;stroke:none"
     d="m 27.31684,45.730185 0.09715,-9.565678 8.472457,-0.09782 8.472458,-0.09782 0,9.663496 0,9.663496 -8.56961,0 -8.56961,0 0.09715,-9.565678 z"
     id="path3005"
     inkscape:connector-curvature="0" />
  <path
     style="fill:#008000;fill-opacity:1;stroke:none"
     d="m 48.002975,45.639083 0,-9.656779 6.741525,0 6.741525,0 0,9.656779 0,9.65678 -6.741525,0 -6.741525,0 0,-9.65678 z"
     id="path3007"
     inkscape:connector-curvature="0" />
  <path
     style="fill:#008000;fill-opacity:1;stroke:none"
     d="m 48.002975,66.41027 0,-7.105933 6.923728,0 6.923729,0 0,7.105933 0,7.105932 -6.923729,0 -6.923728,0 0,-7.105932 z"
     id="path3009"
     inkscape:connector-curvature="0" />
  <path
     style="fill:#008000;fill-opacity:1;stroke:none"
     d="m 27.596195,66.41027 0,-7.105933 8.381356,0 8.381356,0 0,7.105933 0,7.105932 -8.381356,0 -8.381356,0 0,-7.105932 z"
     id="path3011"
     inkscape:connector-curvature="0" />
  <path
     style="fill:#008000;fill-opacity:1;stroke:none"
     id="path3031"
     d="m 40.525974,29.972018 c -0.420756,-1.09238 -0.739362,-2.194081 -0.960574,-3.312006 -0.19203,-0.998753 -0.211401,-2.005907 -0.117533,-3.009386 0.201122,-1.306516 0.742627,-2.572588 1.168597,-3.850719 0.239765,-1.015107 0.778762,-1.967108 1.554305,-2.84937 0.670638,-0.881968 1.450568,-1.45813 2.821121,-1.834964 1.20395,-0.232596 2.486686,-0.262048 3.73443,-0.250184 2.584246,0.02457 5.168204,0.06115 7.752305,0.09172 1.720441,0.186458 2.480679,0.62251 3.213653,1.654862 0.546158,0.89463 0.644909,1.862729 0.696782,2.817178 0.136948,0.822947 -0.102333,1.574976 -0.606255,2.319275 -0.433351,0.644203 -1.012657,1.2418 -1.532768,1.857532 -0.729985,0.763337 -1.399229,1.553313 -2.23207,2.269517 -0.850489,0.703918 -1.498166,1.495175 -2.36174,2.192395 -0.536268,0.391272 -0.974356,0.82642 -1.375137,1.28192 0,0 -7.091459,-0.286143 -7.091459,-0.286143 l 0,0 c 0.512686,-0.426601 0.866737,-0.932087 1.448915,-1.326118 0.889633,-0.682533 1.536537,-1.459255 2.350089,-2.179648 0.84865,-0.685404 1.516289,-1.448649 2.214246,-2.204299 0.783079,-0.835013 -0.158443,0.208143 0.555886,-0.720556 0.211825,-0.275392 0.546272,-0.512868 0.765524,-0.781399 0.07814,-0.09571 0.119539,-0.202888 0.179309,-0.304331 0.125851,-0.185623 0.288947,-0.359958 0.401289,-0.549409 0.297029,-0.5009 0.276573,-1.022502 0.240582,-1.550846 -0.05277,-0.885263 -0.117956,-1.788547 -0.682828,-2.606557 -0.760415,-0.851928 -1.66709,-1.101053 -3.121113,-1.20655 12.056568,-0.08132 5.22654,-0.13662 2.454809,0.07433 -1.387413,0.211738 -2.175702,0.629397 -2.806857,1.499695 -0.786837,0.825304 -1.32298,1.731231 -1.568338,2.699666 -0.458094,1.244961 -1.00917,2.485081 -1.178563,3.766906 -0.05745,0.976333 0.0066,1.954653 0.139734,2.927663 0.191778,1.108754 0.505033,2.204479 1.031535,3.266273 0,0 -7.087876,0.103558 -7.087876,0.103558 z"
     inkscape:connector-curvature="0" />
  <path
     style="fill:#008000;fill-opacity:1;stroke:none"
     id="path3039"
     d="m 51.471969,30.540676 c 0.971495,-0.609138 1.843181,-1.35317 2.769451,-2.023357 0.807035,-0.570521 1.711119,-0.977285 2.597814,-1.405345 1.050311,-0.501207 2.072636,-1.028637 3.197873,-1.339446 3.191422,-0.605739 6.519764,-0.223007 9.718205,-0.136546 0.693485,0.243107 1.461279,0.61432 1.968419,1.172562 0.262178,0.288597 0.354204,0.530748 0.524174,0.872118 0.561025,0.667719 0.835785,1.426887 0.984202,2.271949 0.233199,1.195955 -0.124008,2.200351 -0.756936,3.202337 -0.607636,0.989581 -1.518666,1.687608 -2.411273,2.398086 -0.639159,0.58251 -1.358762,1.063376 -2.152777,1.403743 -0.961908,0.321475 -1.985341,0.342919 -2.989361,0.371162 -2.591004,0.04007 -2.103746,0.03693 -7.130328,-0.0528 -0.214299,-0.0038 -0.429728,-0.02358 -0.639382,-0.06812 C 56.580832,37.085658 56.006942,36.814951 55.473736,36.58445 54.49115,36.208432 53.650322,35.570781 53.024541,34.728763 52.789272,34.240909 52.5197,33.779516 52.289976,33.28876 c 0,0 6.067942,-0.278008 6.067942,-0.278008 l 0,0 c 0.230687,0.44397 0.464799,0.886102 0.743856,1.30239 0.649775,0.721081 1.489141,1.216405 2.398405,1.549696 0.541685,0.197274 1.063718,0.379846 1.639403,0.453125 0.214885,0.02735 0.864326,0.04909 0.647733,0.05252 -0.243722,0.0039 -7.732849,0.03117 -4.868578,0.02069 0.980208,-0.01061 1.969998,-0.0093 2.936563,-0.191699 0.804535,-0.190825 1.520072,-0.648748 2.155068,-1.171334 0.815837,-0.731213 1.813875,-1.273384 2.409639,-2.235287 0.627434,-0.838064 0.949108,-1.671238 0.708886,-2.724134 -0.158886,-0.776785 -0.512561,-1.431971 -0.970288,-2.077924 -0.53771,-0.857261 -1.436261,-1.320163 -2.412404,-1.52947 10.65021,-0.133998 4.731001,-0.187262 2.297852,0.125542 -1.182438,0.217006 -2.100419,0.677379 -3.164702,1.206667 -0.872781,0.422827 -1.758202,0.821066 -2.587371,1.321567 -0.95753,0.587936 -1.745576,1.398549 -2.723064,1.96308 0,0 -6.096947,-0.535498 -6.096947,-0.535498 z"
     inkscape:connector-curvature="0" />
  <path
     style="fill:#008000;fill-opacity:1;stroke:none"
     id="path3047"
     d="m 17.465656,23.076706 c 3.22861,0.102697 6.61065,-0.621091 9.718259,0.206121 0.122425,0.03259 1.003228,0.345752 1.147372,0.396601 0.371226,0.306477 0.915177,0.363915 1.341855,0.574573 0.146985,0.07257 0.259544,0.187417 0.39938,0.269572 0.30984,0.182034 0.510705,0.247094 0.849383,0.381478 1.167863,0.411665 2.295076,0.913711 3.354278,1.50157 1.279487,0.848039 2.450747,1.805282 3.748117,2.632844 0.81134,0.706804 1.8681,1.223999 2.60447,1.98705 0,0 -7.163085,0.457076 -7.163085,0.457076 l 0,0 c -0.82027,-0.647551 -1.666151,-1.274382 -2.512556,-1.896138 -1.249097,-0.860129 -2.439216,-1.786432 -3.766568,-2.561319 -1.107035,-0.532437 -2.236355,-1.01713 -3.398015,-1.45675 -0.84003,-0.410528 -1.66982,-0.835375 -2.56372,-1.160177 -0.43901,-0.133831 -0.64027,-0.211415 -1.1066,-0.285272 -0.21999,-0.03484 -0.88957,-0.06893 -0.66586,-0.07258 11.405198,-0.186372 7.611046,-0.0026 5.12955,-0.01599 0,0 -7.11626,-0.958653 -7.11626,-0.958653 z"
     inkscape:connector-curvature="0" />
  <path
     style="fill:#008000;fill-opacity:1;stroke:none"
     id="path3051"
     d="m 15.809526,39.470785 c 1.325,-1.087466 2.82424,-1.7576 4.28984,-2.509211 1.64466,-0.713861 3.2388,-1.58439 4.88827,-2.281142 1.10611,-0.352395 2.128934,-0.964642 3.234464,-1.317042 1.163132,-0.246667 2.343577,-0.310359 3.513668,-0.506316 3.20714,-0.545768 6.465517,-0.296138 9.682014,0.02505 0,0 -6.37493,1.145517 -6.37493,1.145517 l 0,0 c -0.261271,-0.02652 -0.86999,-0.09026 -1.129102,-0.108654 -0.180881,-0.01283 -0.724308,-0.02476 -0.543122,-0.02704 10.37792,-0.130216 6.979498,-0.221658 4.751693,0.07232 -1.167488,0.185986 -2.326059,0.37317 -3.503948,0.440131 -0.523921,0.116756 -1.01745,0.24807 -1.516276,0.478734 -0.371516,0.171796 -0.718903,0.416606 -1.096204,0.569191 -0.215669,0.08722 -0.442709,0.126994 -0.664063,0.1905 -1.678567,0.602194 -3.254413,1.530791 -4.911874,2.205713 -1.41201,0.739959 -2.87555,1.332769 -4.16788,2.360136 0,0 -6.45255,-0.737902 -6.45255,-0.737902 z"
     inkscape:connector-curvature="0" />
  <path
     style="fill:#008000;fill-opacity:1;stroke:none"
     id="path3057"
     d="m 47.612862,32.239049 c 0.467677,1.060574 1.027114,1.706417 2.219946,1.802683 -1.895117,-0.02424 -3.790234,-0.04847 -5.685351,-0.0727 0,0 6.043905,0.937512 6.043905,0.937512 l 0,0 c -2.134853,-0.01659 -4.269705,-0.03317 -6.404558,-0.04976 -1.085617,-0.420955 -1.78539,-1.310105 -2.298283,-2.333572 0,0 6.124341,-0.284157 6.124341,-0.284157 z"
     inkscape:connector-curvature="0" />
</svg>
